<?xml version="1.0" encoding="iso-8859-1"?>
<!-- Generator: Adobe Illustrator 19.0.0, SVG Export Plug-In . SVG Version: 6.00 Build 0)  -->
<svg version="1.1" id="Capa_1" xmlns="http://www.w3.org/2000/svg" xmlns:xlink="http://www.w3.org/1999/xlink" x="0px" y="0px"
	 viewBox="0 0 480 480" style="enable-background:new 0 0 480 480;" xml:space="preserve">
<g>
	<g>
		<path d="M440,0H40C17.92,0.026,0.026,17.92,0,40v288c0.026,22.08,17.92,39.974,40,40h121.872l-38.4,64H96c-4.418,0-8,3.582-8,8v32
			c0,4.418,3.582,8,8,8h288c4.418,0,8-3.582,8-8v-32c0-4.418-3.582-8-8-8h-27.472l-38.4-64H440c22.08-0.026,39.974-17.92,40-40V40
			C479.974,17.92,462.08,0.026,440,0z M376,448v16H104v-16H376z M337.872,432H142.128l38.4-64h118.944L337.872,432z M464,328
			c0,13.255-10.745,24-24,24H40c-13.255,0-24-10.745-24-24v-24h448V328z M464,288H16V40c0-13.255,10.745-24,24-24h400
			c13.255,0,24,10.745,24,24V288z"/>
	</g>
</g>
<g>
	<g>
		<rect x="232" y="320" width="16" height="16"/>
	</g>
</g>
<g>
	<g>
		<path d="M320,168h-35.472l-21.672-36.12c-1.446-2.407-4.048-3.879-6.856-3.88h-96c-2.43-0.001-4.729,1.103-6.248,3l-29.896,37.376
			L47.2,176.04c-4.088,0.411-7.2,3.852-7.2,7.96v56c0,4.418,3.582,8,8,8h49.472c4.335,12.442,17.935,19.014,30.376,14.68
			c6.877-2.396,12.284-7.802,14.68-14.68h82.944c4.335,12.442,17.935,19.014,30.376,14.68c6.877-2.396,12.284-7.802,14.68-14.68H320
			c4.418,0,8-3.582,8-8v-64C328,171.582,324.418,168,320,168z M120,248c-4.418,0-8-3.582-8-8s3.582-8,8-8s8,3.582,8,8
			S124.418,248,120,248z M248,248c-4.418,0-8-3.582-8-8s3.582-8,8-8s8,3.582,8,8S252.418,248,248,248z M312,200h-16v16h16v16
			h-41.472c-4.335-12.442-17.935-19.014-30.376-14.68c-6.877,2.396-12.284,7.802-14.68,14.68h-82.944
			c-4.335-12.442-17.935-19.014-30.376-14.68c-6.877,2.396-12.284,7.802-14.68,14.68H56v-16h16v-16H56v-8.76l72.8-7.24
			c2.14-0.214,4.104-1.281,5.448-2.96L163.84,144h87.632l21.672,36.12c1.446,2.407,4.048,3.879,6.856,3.88h32V200z"/>
	</g>
</g>
<g>
	<g>
		<polygon points="168,88 168,72 152,72 152,88 136,88 136,56 120,56 120,88 104,88 104,40 88,40 88,88 72,88 72,64 56,64 56,88 
			40,88 40,104 184,104 184,88 		"/>
	</g>
</g>
<g>
	<g>
		<rect x="360" y="168" width="80" height="16"/>
	</g>
</g>
<g>
	<g>
		<rect x="360" y="200" width="80" height="16"/>
	</g>
</g>
<g>
	<g>
		<rect x="360" y="232" width="80" height="16"/>
	</g>
</g>
<g>
	<g>
		<path d="M280,40c-2.373-0.001-4.623,1.051-6.144,2.872l-40,48l12.288,10.256L283.744,56H328V40H280z"/>
	</g>
</g>
<g>
	<g>
		<rect x="360" y="40" width="16" height="16"/>
	</g>
</g>
<g>
	<g>
		<rect x="392" y="40" width="16" height="16"/>
	</g>
</g>
<g>
	<g>
		<rect x="360" y="72" width="80" height="16"/>
	</g>
</g>
<g>
	<g>
		<rect x="360" y="104" width="80" height="16"/>
	</g>
</g>
<g>
</g>
<g>
</g>
<g>
</g>
<g>
</g>
<g>
</g>
<g>
</g>
<g>
</g>
<g>
</g>
<g>
</g>
<g>
</g>
<g>
</g>
<g>
</g>
<g>
</g>
<g>
</g>
<g>
</g>
</svg>
